<?xml version="1.0" encoding="iso-8859-1"?>
<!-- Generator: Adobe Illustrator 19.0.0, SVG Export Plug-In . SVG Version: 6.00 Build 0)  -->
<svg version="1.1" id="Layer_1" xmlns="http://www.w3.org/2000/svg" xmlns:xlink="http://www.w3.org/1999/xlink" x="0px" y="0px"
	 viewBox="0 0 512 512" style="enable-background:new 0 0 512 512;" xml:space="preserve">
<circle style="fill:#539E68;" cx="256" cy="256" r="256"/>
<path style="fill:#3f7b50;" d="M150.657,361.834L297.463,508.64c108.184-17.622,193.584-103.036,211.185-211.227l-146.032-146.03
	L150.657,361.834z"/>
<path style="fill:#fff;" d="M169.95,369.778h172.103c15.313,0,27.726-12.414,27.726-27.726V169.95
	c0-15.313-12.414-27.727-27.726-27.727H169.95c-15.313,0-27.727,12.414-27.727,27.727v172.103
	C142.222,357.364,154.636,369.778,169.95,369.778z"/>
<path style="fill:#fff;" d="M142.222,256v86.052c0,15.313,12.414,27.726,27.726,27.726H342.05
	c15.313,0,27.726-12.414,27.726-27.726V256H142.222z"/>
<path style="fill:#FF5419;" d="M208.236,177.967l116.545,67.287c8.271,4.775,8.271,16.715,0,21.492l-116.545,67.286
	c-8.271,4.775-18.613-1.195-18.613-10.745V188.714C189.623,179.162,199.963,173.192,208.236,177.967z"/>
<path style="fill:#E03A00;" d="M189.623,323.286c0,9.552,10.34,15.522,18.613,10.745l116.545-67.286
	c4.136-2.388,6.204-6.566,6.204-10.745h-141.36v67.286H189.623z"/>
<g>
</g>
<g>
</g>
<g>
</g>
<g>
</g>
<g>
</g>
<g>
</g>
<g>
</g>
<g>
</g>
<g>
</g>
<g>
</g>
<g>
</g>
<g>
</g>
<g>
</g>
<g>
</g>
<g>
</g>
</svg>
