<?xml version="1.0" encoding="iso-8859-1"?>
<!-- Generator: Adobe Illustrator 19.0.0, SVG Export Plug-In . SVG Version: 6.00 Build 0)  -->
<svg version="1.1" id="Layer_1" xmlns="http://www.w3.org/2000/svg" xmlns:xlink="http://www.w3.org/1999/xlink" x="0px" y="0px"
	 viewBox="0 0 512 512" style="enable-background:new 0 0 512 512;" xml:space="preserve">
<circle style="fill:#539E68;" cx="256" cy="256" r="256"/>
<path style="fill:#3f7b50;" d="M145.394,366.626L288.697,509.93c115.198-14.686,206.479-105.934,221.217-221.115l-142.61-142.61
	L145.394,366.626z"/>
<circle style="fill:#FFEDB5;" cx="256" cy="256" r="156.444"/>
<path style="fill:#FEE187;" d="M256,99.556c-0.191,0-0.383,0.007-0.574,0.007v312.875c0.191,0,0.383,0.007,0.574,0.007
	c86.402,0,156.444-70.042,156.444-156.444S342.402,99.556,256,99.556z"/>
<circle style="fill:#E03A00;" cx="256" cy="256" r="71.111"/>
<path style="fill:#940030;" d="M256,184.889c-0.193,0-0.383,0.014-0.574,0.014v142.193c0.191,0.002,0.381,0.014,0.574,0.014
	c39.274,0,71.111-31.837,71.111-71.111S295.274,184.889,256,184.889z"/>
<g>
</g>
<g>
</g>
<g>
</g>
<g>
</g>
<g>
</g>
<g>
</g>
<g>
</g>
<g>
</g>
<g>
</g>
<g>
</g>
<g>
</g>
<g>
</g>
<g>
</g>
<g>
</g>
<g>
</g>
</svg>
