<?xml version="1.0" encoding="iso-8859-1"?>
<!-- Generator: Adobe Illustrator 19.0.0, SVG Export Plug-In . SVG Version: 6.00 Build 0)  -->
<svg version="1.1" id="Layer_1" xmlns="http://www.w3.org/2000/svg" xmlns:xlink="http://www.w3.org/1999/xlink" x="0px" y="0px"
	 viewBox="0 0 512 512" style="enable-background:new 0 0 512 512;" xml:space="preserve">
<circle style="fill:#539E68;" cx="256" cy="256" r="256"/>
<path style="fill:#3f7b50;" d="M150.531,361.632L297.529,508.63C405.583,491.001,490.896,405.737,508.6,297.708L359.748,148.856
	L150.531,361.632z"/>
<path style="fill:#FF2746;" d="M169.948,369.778H342.05c15.313,0,27.726-12.414,27.726-27.726V169.95
	c0-15.313-12.414-27.727-27.726-27.727H169.948c-15.313,0-27.727,12.414-27.727,27.727v172.103
	C142.222,357.364,154.636,369.778,169.948,369.778z"/>
<path style="fill:#C61839;" d="M342.05,142.222h-86.626v227.556h86.626c15.313,0,27.726-12.414,27.726-27.726V169.948
	C369.778,154.636,357.364,142.222,342.05,142.222z"/>
<path style="fill:#fff;" d="M226.838,312.889h58.325c15.313,0,27.726-12.414,27.726-27.726v-58.325
	c0-15.313-12.414-27.726-27.726-27.726h-58.325c-15.313,0-27.727,12.414-27.727,27.726v58.325
	C199.111,300.475,211.525,312.889,226.838,312.889z"/>
<path style="fill:#fff;" d="M285.162,199.111h-29.737v113.778h29.737c15.313,0,27.726-12.414,27.726-27.726v-58.325
	C312.889,211.525,300.475,199.111,285.162,199.111z"/>
<g>
</g>
<g>
</g>
<g>
</g>
<g>
</g>
<g>
</g>
<g>
</g>
<g>
</g>
<g>
</g>
<g>
</g>
<g>
</g>
<g>
</g>
<g>
</g>
<g>
</g>
<g>
</g>
<g>
</g>
</svg>
